<?xml version="1.0" encoding="UTF-8"?>
<svg width="256px" height="256px" viewBox="0 0 256 256" version="1.1" xmlns="http://www.w3.org/2000/svg" xmlns:xlink="http://www.w3.org/1999/xlink">
    <!-- Generator: Sketch 58 (84663) - https://sketch.com -->
    <title>icon</title>
    <desc>Created with Sketch.</desc>
    <defs>
        <linearGradient x1="0%" y1="0%" x2="100%" y2="100%" id="linearGradient-1">
            <stop stop-color="#3139CC" offset="0%"></stop>
            <stop stop-color="#179AE6" offset="100%"></stop>
        </linearGradient>
    </defs>
    <g id="icon" stroke="none" stroke-width="1" fill="none" fill-rule="evenodd">
        <g id="Group" fill-rule="nonzero">
            <rect id="Rectangle" fill="url(#linearGradient-1)" x="0" y="0" width="256" height="256"></rect>
            <g id="Logo-/-White" transform="translate(28.000000, 28.000000)" fill="#FFFFFF">
                <path d="M114.462961,5.99075453 L194.009245,85.5370392 C201.996918,93.5247119 201.996918,106.475288 194.009245,114.462961 L114.462961,194.009245 C106.475288,201.996918 93.5247119,201.996918 85.5370392,194.009245 L51.036,159.508 L73.6108942,136.933262 C89.9213257,148.313374 112.468547,146.85628 127.181879,132.561982 L127.625325,132.124892 C144.124892,115.625325 144.124892,88.8742418 127.625325,72.374675 C111.125758,55.8751083 84.374675,55.8751083 67.8751083,72.374675 C53.3214722,86.9283112 51.6050413,109.457964 62.7258158,125.892956 L63.0667383,126.389106 L40.492,148.964 L5.99075453,114.462961 C-1.99691818,106.475288 -1.99691818,93.5247119 5.99075453,85.5370392 L85.5370392,5.99075453 C93.5247119,-1.99691818 106.475288,-1.99691818 114.462961,5.99075453 Z M97.7502166,74.9116882 C112.84863,74.9116882 125.088312,87.1513703 125.088312,102.249783 C125.088312,117.348196 112.84863,129.587878 97.7502166,129.587878 C82.6518036,129.587878 70.4121215,117.348196 70.4121215,102.249783 C70.4121215,87.1513703 82.6518036,74.9116882 97.7502166,74.9116882 Z" id="Combined-Shape"></path>
            </g>
        </g>
    </g>
</svg>